# Blender v2.79 (sub 0) OBJ File: ''
# www.blender.org
mtllib rock.mtl
o Icosphere
v 0.246117 0.988941 0.685322
v -0.644354 0.988941 0.468145
v -0.644354 0.988941 -0.468145
v 0.246117 0.988941 -0.757482
v 0.502247 0.988937 0.000000
v 0.000000 1.227258 0.000000
v 0.654314 0.590703 0.275168
v 0.914343 0.590703 -0.275168
v 0.000000 0.590703 0.729090
v 0.523408 0.590703 0.586419
v -0.653487 0.590703 0.275168
v -0.456668 0.590703 0.656681
v -0.523408 0.590703 -0.651968
v -0.932127 0.590703 -0.275168
v 0.523408 0.590703 -0.839984
v 0.000000 0.590703 -0.737278
v 0.584715 1.058858 0.501384
v -0.354586 0.978860 0.720404
v -0.757480 1.058858 0.000000
v -0.234078 1.058859 -0.453430
v 0.612815 1.058858 -0.445235
v 0.144663 1.289164 0.445233
v 0.468149 1.289161 0.000000
v -0.378739 1.401436 0.275167
v -0.378739 1.236237 -0.275167
v 0.144663 1.236237 -0.445233
vn 0.2518 0.6549 0.7125
vn -0.5076 0.6110 0.6075
vn -0.5547 0.7928 -0.2525
vn -0.3107 0.6934 -0.6501
vn 0.9606 0.1091 0.2557
vn -0.1311 0.9911 -0.0226
vn 0.3324 0.8774 -0.3458
vn 0.3004 0.7928 -0.5303
vn 0.0073 0.9997 0.0225
vn -0.2527 0.5755 -0.7778
vn -0.0877 0.6697 -0.7375
vn 0.2256 0.9331 -0.2801
vn -0.5494 0.8003 -0.2402
vn -0.7466 0.6076 0.2711
vn 0.2721 0.9371 -0.2187
vn -0.0690 0.7217 0.6887
vn 0.0347 0.6313 0.7748
vn -0.1305 0.9869 -0.0948
vn 0.4121 0.8605 0.2994
vn 0.9780 0.1111 -0.1764
vn 0.7573 0.5897 0.2807
vn 0.7825 0.3072 -0.5416
vn 0.5053 0.4979 -0.7049
vn -0.4892 0.2601 -0.8325
vn -0.1428 0.4599 -0.8764
vn -0.0371 0.4095 -0.9116
vn -0.8377 0.4730 -0.2731
vn -0.8901 0.0672 0.4507
vn -0.9713 -0.0853 0.2220
vn -0.6549 0.0484 0.7542
vn -0.1555 -0.1201 0.9805
vn 0.0569 0.0743 0.9956
vn 0.4589 0.1003 0.8828
vn 0.9206 -0.0502 0.3872
vn 0.9538 0.2333 -0.1894
vn -0.1921 0.0691 -0.9789
vn -0.6719 0.1323 -0.7288
vn -0.8711 -0.1978 0.4494
vn 0.2626 -0.0564 0.9633
vn 0.7614 0.5393 0.3598
vn 0.0000 -1.0000 0.0000
usemtl None
s off
f 1//1 17//1 22//1
f 2//2 18//2 24//2
f 3//3 19//3 25//3
f 4//4 20//4 26//4
f 5//5 21//5 23//5
f 23//6 26//6 6//6
f 23//7 21//7 26//7
f 21//8 4//8 26//8
f 26//9 25//9 6//9
f 26//10 20//10 25//10
f 20//11 3//11 25//11
f 25//12 24//12 6//12
f 25//13 19//13 24//13
f 19//14 2//14 24//14
f 24//15 22//15 6//15
f 24//16 18//16 22//16
f 18//17 1//17 22//17
f 22//18 23//18 6//18
f 22//19 17//19 23//19
f 17//20 5//20 23//20
f 8//21 21//21 5//21
f 8//22 15//22 21//22
f 15//23 4//23 21//23
f 16//24 20//24 4//24
f 16//25 13//25 20//25
f 13//26 3//26 20//26
f 14//27 19//27 3//27
f 14//28 11//28 19//28
f 11//29 2//29 19//29
f 12//30 18//30 2//30
f 12//31 9//31 18//31
f 9//32 1//32 18//32
f 10//33 17//33 1//33
f 10//34 7//34 17//34
f 7//35 5//35 17//35
f 15//36 16//36 4//36
f 13//37 14//37 3//37
f 11//38 12//38 2//38
f 9//39 10//39 1//39
f 7//40 8//40 5//40
f 8//41 7//41 10//41 9//41 12//41 11//41 14//41 13//41 16//41 15//41
